<svg width="24" height="24" viewBox="0 0 24 24" fill="none" xmlns="http://www.w3.org/2000/svg">
<symbol id="facebook-icon">
<path fill-rule="evenodd" clip-rule="evenodd" d="M13.457 19V12.25H15.643L16 9.25H13.457V7.789C13.457 7.0165 13.4781 6.25 14.6295 6.25H15.7958V4.105C15.7958 4.07275 14.794 4 13.7805 4C11.664 4 10.3387 5.24275 10.3387 7.525V9.25H8V12.25H10.3387V19H13.457Z" fill="white"/>
</symbol>
</svg>

<svg width="24" height="24" viewBox="0 0 24 24" fill="none" xmlns="http://www.w3.org/2000/svg">
<symbol id="linkedin-icon">
<path fill-rule="evenodd" clip-rule="evenodd" d="M20 19H16.9231V13.3967C16.9231 11.8596 16.2715 11.0022 15.1031 11.0022C13.8315 11.0022 13.0769 11.8956 13.0769 13.3967V19H10V8.59243H13.0769V9.76288C13.0769 9.76288 14.0423 8 16.2177 8C18.3938 8 20 9.3818 20 12.2415C20 15.1004 20 19 20 19ZM5.50031 6C4.67151 6 4 5.32819 4 4.4997C4 3.67181 4.67151 3 5.50031 3C6.32849 3 7 3.67181 7 4.4997C7.00061 5.32819 6.32849 6 5.50031 6ZM4 19H7V9H4V19Z" fill="white"/>
</symbol>
</svg>

<svg width="50" height="49" viewBox="0 0 50 49" fill="none" xmlns="http://www.w3.org/2000/svg">
<g clip-path="url(#clip0_12_343)">
<symbol id="flower-icon">
<path d="M36.7829 15.3143V7.65842C36.7829 6.81284 36.0971 6.12726 35.251 6.12726H33.719V1.53375C33.719 0.68816 33.0332 0.0025787 32.187 0.0025787C30.0182 0.0025787 26.6967 -0.163553 22.7976 2.1711C20.3739 1.45001 18.6597 1.53375 16.8674 1.53375C16.0213 1.53375 15.3354 2.21933 15.3354 3.06492V6.12726H13.8035C12.9573 6.12726 12.2715 6.81284 12.2715 7.65842V15.3143C12.2715 21.5501 16.9579 26.7123 22.9952 27.4681V47.4688C22.9952 48.3144 23.6811 49 24.5272 49C25.3733 49 26.0592 48.3144 26.0592 47.4688V42.1097H28.3571C33.0031 42.1097 36.7829 38.3319 36.7829 33.6883V31.3915C36.7829 30.546 36.0971 29.8604 35.251 29.8604H31.4211C29.3859 29.8604 27.517 30.5853 26.0592 31.7903V27.4674C32.0876 26.7212 36.7829 21.5847 36.7829 15.3143ZM33.719 15.3143C33.719 18.0393 32.5133 20.5004 30.6076 22.1879C30.6377 21.9422 30.6551 21.6926 30.6551 21.4389C30.6551 17.5614 29.2047 14.0165 26.8187 11.3159C28.8415 9.93633 31.2399 9.18959 33.719 9.18959V15.3143ZM30.6551 3.06492V6.43617C30.372 6.49378 30.0908 6.55952 29.812 6.63292C28.8182 5.52101 27.6847 4.57369 26.4472 3.8082C27.7848 3.31938 29.2049 3.06492 30.6551 3.06492ZM18.3994 4.59609C21.4429 4.59609 24.3985 5.70685 26.6972 7.82915C25.9385 8.22046 25.2111 8.67665 24.5227 9.1939C22.7415 7.85547 20.6602 6.89562 18.3994 6.43512V4.59609ZM15.3354 15.3143V9.18959C22.0932 9.18959 27.5911 14.6846 27.5911 21.4389C27.5911 23.15 26.1774 24.5443 24.4467 24.4998C19.0647 24.367 15.3354 20.0933 15.3354 15.3143ZM31.4211 32.9227H33.719V33.6883C33.719 36.6433 31.3137 39.0474 28.3571 39.0474H26.0592V38.2818C26.0592 35.3268 28.4646 32.9227 31.4211 32.9227Z" fill="white"/>
</g>
<defs>
<clipPath id="clip0_12_343">
<rect width="49.0255" height="49" fill="white" transform="translate(0.0144043)"/>
</clipPath>
</defs>
</symbol>
</svg>

<svg width="33" height="32" viewBox="0 0 33 32" fill="none" xmlns="http://www.w3.org/2000/svg">
<symbol id="search-icon">
<g clip-path="url(#clip0_6_355)" filter="url(#filter0_d_6_355)">
<g clip-path="url(#clip1_6_355)">
<path d="M20.3805 18H19.5905L19.3105 17.73C20.2905 16.59 20.8805 15.11 20.8805 13.5C20.8805 9.91 17.9705 7 14.3805 7C10.7905 7 7.88049 9.91 7.88049 13.5C7.88049 17.09 10.7905 20 14.3805 20C15.9905 20 17.4705 19.41 18.6105 18.43L18.8805 18.71V19.5L23.8805 24.49L25.3705 23L20.3805 18ZM14.3805 18C11.8905 18 9.88049 15.99 9.88049 13.5C9.88049 11.01 11.8905 9 14.3805 9C16.8705 9 18.8805 11.01 18.8805 13.5C18.8805 15.99 16.8705 18 14.3805 18Z" fill="white"/>
</g>
</g>
<defs>
<filter id="filter0_d_6_355" x="0.880493" y="0" width="32.0125" height="32" filterUnits="userSpaceOnUse" color-interpolation-filters="sRGB">
<feFlood flood-opacity="0" result="BackgroundImageFix"/>
<feColorMatrix in="SourceAlpha" type="matrix" values="0 0 0 0 0 0 0 0 0 0 0 0 0 0 0 0 0 0 127 0" result="hardAlpha"/>
<feOffset/>
<feGaussianBlur stdDeviation="2"/>
<feColorMatrix type="matrix" values="0 0 0 0 0 0 0 0 0 0 0 0 0 0 0 0 0 0 0.1 0"/>
<feBlend mode="normal" in2="BackgroundImageFix" result="effect1_dropShadow_6_355"/>
<feBlend mode="normal" in="SourceGraphic" in2="effect1_dropShadow_6_355" result="shape"/>
</filter>
<clipPath id="clip0_6_355">
<rect width="24.0125" height="24" fill="white" transform="translate(4.88049 4)"/>
</clipPath>
<clipPath id="clip1_6_355">
<rect width="24" height="24" fill="white" transform="translate(4.88049 4)"/>
</clipPath>
</defs>
</symbol>
</svg>

<svg width="24" height="24" viewBox="0 0 24 24" fill="none" xmlns="http://www.w3.org/2000/svg">
<symbol id="google-icon">
<path fill-rule="evenodd" clip-rule="evenodd" d="M18.8751 10.6027H12.1479C12.1479 11.3023 12.1479 12.7015 12.1436 13.4011H16.0418C15.8925 14.1007 15.3628 15.0802 14.6145 15.5734C14.6138 15.5727 14.6131 15.5776 14.6116 15.5769C13.6167 16.2338 12.3037 16.3829 11.3288 16.187C9.80069 15.8833 8.59134 14.7752 8.10032 13.3675C8.10317 13.3654 8.10532 13.3459 8.10746 13.3445C7.80012 12.4714 7.80012 11.3023 8.10746 10.6027H8.10675C8.50272 9.31683 9.74851 8.14359 11.2788 7.82247C12.5096 7.56152 13.8983 7.84416 14.9197 8.79982C15.0555 8.6669 16.7995 6.96405 16.9303 6.82553C13.4409 3.66541 7.85373 4.77708 5.7631 8.85789H5.76239C5.76239 8.85789 5.7631 8.85789 5.75882 8.86558C4.72458 10.87 4.76747 13.2318 5.76596 15.1404C5.7631 15.1425 5.76096 15.1438 5.75882 15.1459C6.66368 16.902 8.31045 18.2487 10.2946 18.7615C12.4024 19.3142 15.0848 18.9364 16.8817 17.3112C16.8824 17.3119 16.8831 17.3126 16.8838 17.3133C18.4062 15.9421 19.354 13.6061 18.8751 10.6027Z" fill="white"/>
</symbol>
</svg>

